<svg version="1.1" xmlns="http://www.w3.org/2000/svg" xmlns:xlink="http://www.w3.org/1999/xlink" width="1319" height="805.98274" viewBox="0,0,1319,805.98274"><defs><linearGradient x1="230.04729" y1="77.84348" x2="646.53602" y2="207.02731" gradientUnits="userSpaceOnUse" id="color-1"><stop offset="0" stop-color="#000000" stop-opacity="0"/><stop offset="1" stop-color="#000000"/></linearGradient><linearGradient x1="656.79165" y1="-137.26565" x2="664.79165" y2="-137.26565" gradientUnits="userSpaceOnUse" id="color-2"><stop offset="0" stop-color="#000000" stop-opacity="0"/><stop offset="1" stop-color="#000000"/></linearGradient></defs><g transform="translate(128.80556,192.8265)"><g data-paper-data="{&quot;isPaintingLayer&quot;:true}" fill-rule="nonzero" stroke-linecap="butt" stroke-linejoin="miter" stroke-miterlimit="10" stroke-dasharray="" stroke-dashoffset="0" style="mix-blend-mode: normal"><path d="M-128.80556,613.15624v-675h1319v675z" fill="#0d1a22" stroke="none" stroke-width="0"/><path d="M184.18818,415.36599l100.49242,-608.19249l386.71452,174.33131c0,0 37.04477,341.30502 23.28521,427.19234c-6.30029,39.32646 -102.77764,69.00016 -102.77764,69.00016z" fill="url(#color-1)" stroke="none" stroke-width="0"/><path d="M656.79165,-129.76565v-15h8v15z" fill="url(#color-2)" stroke="none" stroke-width="0"/><path d="M333.79165,394.23435v-420h294v420z" fill-opacity="0.07451" fill="#ffffff" stroke="none" stroke-width="0"/><path d="M399.50676,179.73435c0,68.75945 -56.79606,124.5 -126.85756,124.5c-70.06149,0 -126.85756,-55.74055 -126.85756,-124.5c0,-68.75945 56.79606,-124.5 126.85756,-124.5c70.06149,0 126.85756,55.74055 126.85756,124.5z" fill="none" stroke-opacity="0.07451" stroke="#ffffff" stroke-width="8"/><path d="M7.79165,533.23435v-585h296v585z" fill="#000000" stroke="none" stroke-width="0"/></g></g></svg>